<mxfile host="65bd71144e">
    <diagram id="x6jDrZe0ydc0VZc0kLpT" name="Palindrome check">
        <mxGraphModel dx="2743" dy="1757" grid="1" gridSize="10" guides="1" tooltips="1" connect="1" arrows="1" fold="1" page="1" pageScale="1" pageWidth="850" pageHeight="1100" math="0" shadow="0">
            <root>
                <mxCell id="0"/>
                <mxCell id="1" parent="0"/>
                <mxCell id="2" value="&lt;b&gt;ALGORITMA MEMERIKSA KATA PALINDROME&lt;/b&gt;" style="text;html=1;align=center;verticalAlign=middle;resizable=0;points=[];autosize=1;strokeColor=none;fillColor=none;" vertex="1" parent="1">
                    <mxGeometry x="20" y="30" width="290" height="30" as="geometry"/>
                </mxCell>
                <mxCell id="3" value="1. FLOWCHART" style="text;html=1;align=center;verticalAlign=middle;resizable=0;points=[];autosize=1;strokeColor=none;fillColor=none;" vertex="1" parent="1">
                    <mxGeometry x="30" y="90" width="110" height="30" as="geometry"/>
                </mxCell>
                <mxCell id="4" style="edgeStyle=orthogonalEdgeStyle;rounded=0;orthogonalLoop=1;jettySize=auto;html=1;entryX=0.5;entryY=0;entryDx=0;entryDy=0;" edge="1" parent="1" source="5" target="7">
                    <mxGeometry relative="1" as="geometry"/>
                </mxCell>
                <mxCell id="5" value="mulai" style="ellipse;whiteSpace=wrap;html=1;" vertex="1" parent="1">
                    <mxGeometry x="250" y="150" width="120" height="80" as="geometry"/>
                </mxCell>
                <mxCell id="6" style="edgeStyle=orthogonalEdgeStyle;rounded=0;orthogonalLoop=1;jettySize=auto;html=1;entryX=0.5;entryY=0;entryDx=0;entryDy=0;" edge="1" parent="1" source="7" target="9">
                    <mxGeometry relative="1" as="geometry"/>
                </mxCell>
                <mxCell id="7" value="INPUT&lt;br&gt;&quot;kakak&quot;" style="shape=parallelogram;perimeter=parallelogramPerimeter;whiteSpace=wrap;html=1;fixedSize=1;" vertex="1" parent="1">
                    <mxGeometry x="237.5" y="260" width="145" height="60" as="geometry"/>
                </mxCell>
                <mxCell id="8" style="edgeStyle=orthogonalEdgeStyle;rounded=0;orthogonalLoop=1;jettySize=auto;html=1;entryX=0.5;entryY=0;entryDx=0;entryDy=0;fontSize=9;" edge="1" parent="1" source="9" target="14">
                    <mxGeometry relative="1" as="geometry"/>
                </mxCell>
                <mxCell id="9" value="value = &quot;kakak&quot;" style="shape=hexagon;perimeter=hexagonPerimeter2;whiteSpace=wrap;html=1;fixedSize=1;" vertex="1" parent="1">
                    <mxGeometry x="250" y="350" width="120" height="80" as="geometry"/>
                </mxCell>
                <mxCell id="10" style="edgeStyle=orthogonalEdgeStyle;rounded=0;orthogonalLoop=1;jettySize=auto;html=1;entryX=0.5;entryY=0;entryDx=0;entryDy=0;fontSize=9;" edge="1" parent="1" source="14" target="19">
                    <mxGeometry relative="1" as="geometry"/>
                </mxCell>
                <mxCell id="11" value="TRUE" style="edgeLabel;html=1;align=center;verticalAlign=middle;resizable=0;points=[];fontSize=9;" connectable="0" vertex="1" parent="10">
                    <mxGeometry x="-0.3219" relative="1" as="geometry">
                        <mxPoint as="offset"/>
                    </mxGeometry>
                </mxCell>
                <mxCell id="12" style="edgeStyle=orthogonalEdgeStyle;rounded=0;orthogonalLoop=1;jettySize=auto;html=1;fontSize=9;" edge="1" parent="1" source="14" target="37">
                    <mxGeometry relative="1" as="geometry">
                        <mxPoint x="440" y="430" as="targetPoint"/>
                        <Array as="points">
                            <mxPoint x="450" y="510"/>
                        </Array>
                    </mxGeometry>
                </mxCell>
                <mxCell id="13" value="FALSE" style="edgeLabel;html=1;align=center;verticalAlign=middle;resizable=0;points=[];fontSize=9;" connectable="0" vertex="1" parent="12">
                    <mxGeometry x="-0.278" relative="1" as="geometry">
                        <mxPoint y="-21" as="offset"/>
                    </mxGeometry>
                </mxCell>
                <mxCell id="14" value="&lt;font style=&quot;font-size: 9px;&quot;&gt;is value.length &amp;lt;= 2 ?&lt;br&gt;&lt;/font&gt;" style="rhombus;whiteSpace=wrap;html=1;" vertex="1" parent="1">
                    <mxGeometry x="235" y="470" width="150" height="80" as="geometry"/>
                </mxCell>
                <mxCell id="15" style="edgeStyle=orthogonalEdgeStyle;rounded=0;orthogonalLoop=1;jettySize=auto;html=1;entryX=0.5;entryY=0;entryDx=0;entryDy=0;" edge="1" parent="1" source="19" target="21">
                    <mxGeometry relative="1" as="geometry"/>
                </mxCell>
                <mxCell id="16" value="TRUE" style="edgeLabel;html=1;align=center;verticalAlign=middle;resizable=0;points=[];" connectable="0" vertex="1" parent="15">
                    <mxGeometry x="-0.2967" y="1" relative="1" as="geometry">
                        <mxPoint as="offset"/>
                    </mxGeometry>
                </mxCell>
                <mxCell id="17" style="edgeStyle=orthogonalEdgeStyle;rounded=0;orthogonalLoop=1;jettySize=auto;html=1;" edge="1" parent="1" source="19" target="32">
                    <mxGeometry relative="1" as="geometry"/>
                </mxCell>
                <mxCell id="18" value="FALSE" style="edgeLabel;html=1;align=center;verticalAlign=middle;resizable=0;points=[];" connectable="0" vertex="1" parent="17">
                    <mxGeometry x="-0.8459" y="2" relative="1" as="geometry">
                        <mxPoint y="-2" as="offset"/>
                    </mxGeometry>
                </mxCell>
                <mxCell id="19" value="var i = 0;&lt;br&gt;i &amp;lt; value.length / 2;" style="rhombus;whiteSpace=wrap;html=1;" vertex="1" parent="1">
                    <mxGeometry x="232.5" y="590" width="155" height="80" as="geometry"/>
                </mxCell>
                <mxCell id="20" style="edgeStyle=orthogonalEdgeStyle;rounded=0;orthogonalLoop=1;jettySize=auto;html=1;entryX=0.5;entryY=0;entryDx=0;entryDy=0;" edge="1" parent="1" source="21" target="26">
                    <mxGeometry relative="1" as="geometry"/>
                </mxCell>
                <mxCell id="21" value="idxAwal = value[i];&lt;br&gt;idxAkhir = value[value.length - 1 - i];" style="shape=hexagon;perimeter=hexagonPerimeter2;whiteSpace=wrap;html=1;fixedSize=1;" vertex="1" parent="1">
                    <mxGeometry x="235" y="710" width="150" height="80" as="geometry"/>
                </mxCell>
                <mxCell id="22" style="edgeStyle=orthogonalEdgeStyle;rounded=0;orthogonalLoop=1;jettySize=auto;html=1;" edge="1" parent="1" source="26">
                    <mxGeometry relative="1" as="geometry">
                        <mxPoint x="310" y="1000" as="targetPoint"/>
                        <Array as="points">
                            <mxPoint x="310" y="980"/>
                            <mxPoint x="310" y="980"/>
                        </Array>
                    </mxGeometry>
                </mxCell>
                <mxCell id="23" value="TRUE" style="edgeLabel;html=1;align=center;verticalAlign=middle;resizable=0;points=[];" connectable="0" vertex="1" parent="22">
                    <mxGeometry x="-0.2259" y="-1" relative="1" as="geometry">
                        <mxPoint as="offset"/>
                    </mxGeometry>
                </mxCell>
                <mxCell id="24" style="edgeStyle=orthogonalEdgeStyle;rounded=0;orthogonalLoop=1;jettySize=auto;html=1;entryX=0.5;entryY=1;entryDx=0;entryDy=0;" edge="1" parent="1" source="26" target="28">
                    <mxGeometry relative="1" as="geometry"/>
                </mxCell>
                <mxCell id="25" value="FALSE" style="edgeLabel;html=1;align=center;verticalAlign=middle;resizable=0;points=[];" connectable="0" vertex="1" parent="24">
                    <mxGeometry x="-0.3195" y="-4" relative="1" as="geometry">
                        <mxPoint x="-12" y="-4" as="offset"/>
                    </mxGeometry>
                </mxCell>
                <mxCell id="26" value="if&lt;br&gt;idxAwal !== idxAkhir" style="rhombus;whiteSpace=wrap;html=1;" vertex="1" parent="1">
                    <mxGeometry x="232.5" y="850" width="155" height="80" as="geometry"/>
                </mxCell>
                <mxCell id="27" style="edgeStyle=orthogonalEdgeStyle;rounded=0;orthogonalLoop=1;jettySize=auto;html=1;entryX=1;entryY=0.5;entryDx=0;entryDy=0;" edge="1" parent="1" source="28" target="19">
                    <mxGeometry relative="1" as="geometry">
                        <Array as="points">
                            <mxPoint x="495" y="630"/>
                        </Array>
                    </mxGeometry>
                </mxCell>
                <mxCell id="28" value="i = i + 1" style="rounded=0;whiteSpace=wrap;html=1;" vertex="1" parent="1">
                    <mxGeometry x="435" y="720" width="120" height="60" as="geometry"/>
                </mxCell>
                <mxCell id="29" style="edgeStyle=orthogonalEdgeStyle;rounded=0;orthogonalLoop=1;jettySize=auto;html=1;entryX=0.5;entryY=0;entryDx=0;entryDy=0;" edge="1" parent="1" source="30" target="33">
                    <mxGeometry relative="1" as="geometry"/>
                </mxCell>
                <mxCell id="30" value="OUTPUT&lt;br&gt;&quot;Bukan Palindrome&quot;" style="shape=parallelogram;perimeter=parallelogramPerimeter;whiteSpace=wrap;html=1;fixedSize=1;" vertex="1" parent="1">
                    <mxGeometry x="230" y="1000" width="160" height="60" as="geometry"/>
                </mxCell>
                <mxCell id="31" style="edgeStyle=orthogonalEdgeStyle;rounded=0;orthogonalLoop=1;jettySize=auto;html=1;entryX=0;entryY=0.625;entryDx=0;entryDy=0;entryPerimeter=0;" edge="1" parent="1" source="32" target="33">
                    <mxGeometry relative="1" as="geometry">
                        <Array as="points">
                            <mxPoint x="120" y="1180"/>
                        </Array>
                    </mxGeometry>
                </mxCell>
                <mxCell id="32" value="OUTPUT&lt;br&gt;&quot;Palindrome&quot;" style="shape=parallelogram;perimeter=parallelogramPerimeter;whiteSpace=wrap;html=1;fixedSize=1;" vertex="1" parent="1">
                    <mxGeometry x="40" y="1000" width="160" height="60" as="geometry"/>
                </mxCell>
                <mxCell id="33" value="SELESAI" style="ellipse;whiteSpace=wrap;html=1;" vertex="1" parent="1">
                    <mxGeometry x="250" y="1130" width="120" height="80" as="geometry"/>
                </mxCell>
                <mxCell id="34" value="2. DEKLARATIF" style="text;html=1;align=center;verticalAlign=middle;resizable=0;points=[];autosize=1;strokeColor=none;fillColor=none;" vertex="1" parent="1">
                    <mxGeometry x="560" y="90" width="110" height="30" as="geometry"/>
                </mxCell>
                <mxCell id="35" value="1. mulai&lt;br/&gt;&lt;br&gt;2. input string kakak&lt;br/&gt;&lt;br&gt;3. asign string kakak kedalam variable value&lt;br/&gt;&lt;br&gt;4. cek apakah panjang value lebih dari dua ?&lt;br/&gt;&lt;br&gt;5.jika ya maka lanjut ke proses berikutnya&lt;br/&gt;&lt;br&gt;    dan jika tidak input string kembali&lt;br/&gt;&lt;br&gt;6. asign nilai 0 kedalam variable i dan cek apakah i kurang dari panjang variable value&lt;br/&gt;&lt;br&gt;7. jika apakah i kurang dari panjang variable value maka bandingkan index value ke [i] dengan&lt;br&gt;index dari panjang value - 1 - i&lt;br&gt;&lt;br&gt;8. jika tidak sama maka tampilkan &quot;Bukan Palindrome&quot; dan selesai.&lt;br&gt;9. jika sama maka tambahkan +1 pada variable i dan terus lakukan pengecekan hingga nilai variable i lebih besar dari panjang value.&lt;br&gt;10. tampilkan &quot;Palindrome&quot; dan Selesai." style="text;whiteSpace=wrap;html=1;fontSize=14;" vertex="1" parent="1">
                    <mxGeometry x="530" y="240" width="320" height="500" as="geometry"/>
                </mxCell>
                <mxCell id="36" style="edgeStyle=orthogonalEdgeStyle;rounded=0;orthogonalLoop=1;jettySize=auto;html=1;entryX=1;entryY=0.5;entryDx=0;entryDy=0;" edge="1" parent="1" source="37" target="7">
                    <mxGeometry relative="1" as="geometry">
                        <Array as="points">
                            <mxPoint x="450" y="290"/>
                        </Array>
                    </mxGeometry>
                </mxCell>
                <mxCell id="37" value="Input Min 3 Karakter" style="shape=parallelogram;perimeter=parallelogramPerimeter;whiteSpace=wrap;html=1;fixedSize=1;" vertex="1" parent="1">
                    <mxGeometry x="382.5" y="360" width="140" height="60" as="geometry"/>
                </mxCell>
            </root>
        </mxGraphModel>
    </diagram>
    <diagram id="OHyJSMukBgXbwo0Br1IL" name="Page-2">
        <mxGraphModel dx="1523" dy="753" grid="1" gridSize="10" guides="1" tooltips="1" connect="1" arrows="1" fold="1" page="1" pageScale="1" pageWidth="850" pageHeight="1100" math="0" shadow="0">
            <root>
                <mxCell id="0"/>
                <mxCell id="1" parent="0"/>
                <mxCell id="Xt5joB0sehqUxy9cHoEi-1" style="edgeStyle=orthogonalEdgeStyle;rounded=0;orthogonalLoop=1;jettySize=auto;html=1;entryX=0.5;entryY=0;entryDx=0;entryDy=0;fontSize=14;" edge="1" parent="1" source="Xt5joB0sehqUxy9cHoEi-2" target="Xt5joB0sehqUxy9cHoEi-4">
                    <mxGeometry relative="1" as="geometry"/>
                </mxCell>
                <mxCell id="Xt5joB0sehqUxy9cHoEi-2" value="Mulai" style="ellipse;whiteSpace=wrap;html=1;fontSize=14;" vertex="1" parent="1">
                    <mxGeometry x="200" y="120" width="120" height="80" as="geometry"/>
                </mxCell>
                <mxCell id="Xt5joB0sehqUxy9cHoEi-3" style="edgeStyle=orthogonalEdgeStyle;rounded=0;orthogonalLoop=1;jettySize=auto;html=1;fontSize=14;" edge="1" parent="1" source="Xt5joB0sehqUxy9cHoEi-4">
                    <mxGeometry relative="1" as="geometry">
                        <mxPoint x="260" y="350" as="targetPoint"/>
                    </mxGeometry>
                </mxCell>
                <mxCell id="Xt5joB0sehqUxy9cHoEi-4" value="Input&lt;br&gt;&quot;jakarta&quot;" style="shape=parallelogram;perimeter=parallelogramPerimeter;whiteSpace=wrap;html=1;fixedSize=1;fontSize=14;" vertex="1" parent="1">
                    <mxGeometry x="190" y="240" width="140" height="60" as="geometry"/>
                </mxCell>
                <mxCell id="Xt5joB0sehqUxy9cHoEi-5" style="edgeStyle=orthogonalEdgeStyle;rounded=0;orthogonalLoop=1;jettySize=auto;html=1;fontSize=14;" edge="1" parent="1" source="Xt5joB0sehqUxy9cHoEi-6" target="Xt5joB0sehqUxy9cHoEi-11">
                    <mxGeometry relative="1" as="geometry"/>
                </mxCell>
                <mxCell id="Xt5joB0sehqUxy9cHoEi-6" value="kata = &quot;jakarta&quot;" style="shape=hexagon;perimeter=hexagonPerimeter2;whiteSpace=wrap;html=1;fixedSize=1;fontSize=14;" vertex="1" parent="1">
                    <mxGeometry x="200" y="350" width="120" height="80" as="geometry"/>
                </mxCell>
                <mxCell id="Xt5joB0sehqUxy9cHoEi-7" style="edgeStyle=orthogonalEdgeStyle;rounded=0;orthogonalLoop=1;jettySize=auto;html=1;fontSize=14;" edge="1" parent="1" source="Xt5joB0sehqUxy9cHoEi-11" target="Xt5joB0sehqUxy9cHoEi-38">
                    <mxGeometry relative="1" as="geometry">
                        <mxPoint x="330" y="280" as="targetPoint"/>
                        <Array as="points">
                            <mxPoint x="400" y="510"/>
                        </Array>
                    </mxGeometry>
                </mxCell>
                <mxCell id="Xt5joB0sehqUxy9cHoEi-8" value="FALSE" style="edgeLabel;html=1;align=center;verticalAlign=middle;resizable=0;points=[];fontSize=14;" connectable="0" vertex="1" parent="Xt5joB0sehqUxy9cHoEi-7">
                    <mxGeometry x="-0.3619" y="2" relative="1" as="geometry">
                        <mxPoint x="5" y="-38" as="offset"/>
                    </mxGeometry>
                </mxCell>
                <mxCell id="Xt5joB0sehqUxy9cHoEi-9" style="edgeStyle=orthogonalEdgeStyle;rounded=0;orthogonalLoop=1;jettySize=auto;html=1;fontSize=14;" edge="1" parent="1" source="Xt5joB0sehqUxy9cHoEi-11" target="Xt5joB0sehqUxy9cHoEi-13">
                    <mxGeometry relative="1" as="geometry"/>
                </mxCell>
                <mxCell id="Xt5joB0sehqUxy9cHoEi-10" value="TRUE" style="edgeLabel;html=1;align=center;verticalAlign=middle;resizable=0;points=[];fontSize=14;" connectable="0" vertex="1" parent="Xt5joB0sehqUxy9cHoEi-9">
                    <mxGeometry x="-0.328" relative="1" as="geometry">
                        <mxPoint as="offset"/>
                    </mxGeometry>
                </mxCell>
                <mxCell id="Xt5joB0sehqUxy9cHoEi-11" value="is kata !== number ?" style="rhombus;whiteSpace=wrap;html=1;fontSize=14;" vertex="1" parent="1">
                    <mxGeometry x="177.5" y="470" width="165" height="80" as="geometry"/>
                </mxCell>
                <mxCell id="Xt5joB0sehqUxy9cHoEi-12" style="edgeStyle=orthogonalEdgeStyle;rounded=0;orthogonalLoop=1;jettySize=auto;html=1;fontSize=14;" edge="1" parent="1" source="Xt5joB0sehqUxy9cHoEi-13" target="Xt5joB0sehqUxy9cHoEi-18">
                    <mxGeometry relative="1" as="geometry"/>
                </mxCell>
                <mxCell id="Xt5joB0sehqUxy9cHoEi-13" value="vokal = ['a','A'];&lt;br&gt;hasil = ' ';" style="shape=hexagon;perimeter=hexagonPerimeter2;whiteSpace=wrap;html=1;fixedSize=1;fontSize=14;" vertex="1" parent="1">
                    <mxGeometry x="200" y="610" width="120" height="80" as="geometry"/>
                </mxCell>
                <mxCell id="Xt5joB0sehqUxy9cHoEi-14" style="edgeStyle=orthogonalEdgeStyle;rounded=0;orthogonalLoop=1;jettySize=auto;html=1;fontSize=14;" edge="1" parent="1" source="Xt5joB0sehqUxy9cHoEi-18">
                    <mxGeometry relative="1" as="geometry">
                        <mxPoint x="260" y="860" as="targetPoint"/>
                    </mxGeometry>
                </mxCell>
                <mxCell id="Xt5joB0sehqUxy9cHoEi-15" value="TRUE" style="edgeLabel;html=1;align=center;verticalAlign=middle;resizable=0;points=[];fontSize=14;" connectable="0" vertex="1" parent="Xt5joB0sehqUxy9cHoEi-14">
                    <mxGeometry x="-0.2" relative="1" as="geometry">
                        <mxPoint as="offset"/>
                    </mxGeometry>
                </mxCell>
                <mxCell id="Xt5joB0sehqUxy9cHoEi-16" style="edgeStyle=orthogonalEdgeStyle;rounded=0;orthogonalLoop=1;jettySize=auto;html=1;fontSize=14;" edge="1" parent="1" source="Xt5joB0sehqUxy9cHoEi-18" target="Xt5joB0sehqUxy9cHoEi-27">
                    <mxGeometry relative="1" as="geometry"/>
                </mxCell>
                <mxCell id="Xt5joB0sehqUxy9cHoEi-17" value="FALSE" style="edgeLabel;html=1;align=center;verticalAlign=middle;resizable=0;points=[];fontSize=14;" connectable="0" vertex="1" parent="Xt5joB0sehqUxy9cHoEi-16">
                    <mxGeometry x="-0.553" y="1" relative="1" as="geometry">
                        <mxPoint as="offset"/>
                    </mxGeometry>
                </mxCell>
                <mxCell id="Xt5joB0sehqUxy9cHoEi-18" value="var i = 0;&lt;br&gt;i &amp;lt; kata.length" style="rhombus;whiteSpace=wrap;html=1;fontSize=14;" vertex="1" parent="1">
                    <mxGeometry x="190" y="730" width="140" height="80" as="geometry"/>
                </mxCell>
                <mxCell id="Xt5joB0sehqUxy9cHoEi-19" value="" style="edgeStyle=orthogonalEdgeStyle;rounded=0;orthogonalLoop=1;jettySize=auto;html=1;fontSize=14;" edge="1" parent="1" source="Xt5joB0sehqUxy9cHoEi-23" target="Xt5joB0sehqUxy9cHoEi-25">
                    <mxGeometry relative="1" as="geometry"/>
                </mxCell>
                <mxCell id="Xt5joB0sehqUxy9cHoEi-20" value="TRUE" style="edgeLabel;html=1;align=center;verticalAlign=middle;resizable=0;points=[];fontSize=14;" connectable="0" vertex="1" parent="Xt5joB0sehqUxy9cHoEi-19">
                    <mxGeometry x="-0.2644" y="2" relative="1" as="geometry">
                        <mxPoint as="offset"/>
                    </mxGeometry>
                </mxCell>
                <mxCell id="Xt5joB0sehqUxy9cHoEi-21" style="edgeStyle=orthogonalEdgeStyle;rounded=0;orthogonalLoop=1;jettySize=auto;html=1;fontSize=14;" edge="1" parent="1" source="Xt5joB0sehqUxy9cHoEi-23" target="Xt5joB0sehqUxy9cHoEi-31">
                    <mxGeometry relative="1" as="geometry"/>
                </mxCell>
                <mxCell id="Xt5joB0sehqUxy9cHoEi-22" value="FALSE" style="edgeLabel;html=1;align=center;verticalAlign=middle;resizable=0;points=[];fontSize=14;" connectable="0" vertex="1" parent="Xt5joB0sehqUxy9cHoEi-21">
                    <mxGeometry x="-0.2578" y="-1" relative="1" as="geometry">
                        <mxPoint x="10" y="-1" as="offset"/>
                    </mxGeometry>
                </mxCell>
                <mxCell id="Xt5joB0sehqUxy9cHoEi-23" value="is kata[i] include&lt;br&gt;vokal ?" style="rhombus;whiteSpace=wrap;html=1;fontSize=14;" vertex="1" parent="1">
                    <mxGeometry x="190" y="860" width="140" height="80" as="geometry"/>
                </mxCell>
                <mxCell id="Xt5joB0sehqUxy9cHoEi-24" style="edgeStyle=orthogonalEdgeStyle;rounded=0;orthogonalLoop=1;jettySize=auto;html=1;entryX=0.5;entryY=1;entryDx=0;entryDy=0;fontSize=14;" edge="1" parent="1" source="Xt5joB0sehqUxy9cHoEi-25" target="Xt5joB0sehqUxy9cHoEi-29">
                    <mxGeometry relative="1" as="geometry"/>
                </mxCell>
                <mxCell id="Xt5joB0sehqUxy9cHoEi-25" value="increment hasil with string &quot;o&quot;" style="whiteSpace=wrap;html=1;fontSize=14;" vertex="1" parent="1">
                    <mxGeometry x="195" y="1000" width="130" height="60" as="geometry"/>
                </mxCell>
                <mxCell id="Xt5joB0sehqUxy9cHoEi-26" style="edgeStyle=orthogonalEdgeStyle;rounded=0;orthogonalLoop=1;jettySize=auto;html=1;entryX=0;entryY=0.5;entryDx=0;entryDy=0;fontSize=14;" edge="1" parent="1" source="Xt5joB0sehqUxy9cHoEi-27" target="Xt5joB0sehqUxy9cHoEi-32">
                    <mxGeometry relative="1" as="geometry">
                        <Array as="points">
                            <mxPoint x="95" y="1140"/>
                        </Array>
                    </mxGeometry>
                </mxCell>
                <mxCell id="Xt5joB0sehqUxy9cHoEi-27" value="output hasil" style="shape=parallelogram;perimeter=parallelogramPerimeter;whiteSpace=wrap;html=1;fixedSize=1;fontSize=14;" vertex="1" parent="1">
                    <mxGeometry x="30" y="850" width="130" height="60" as="geometry"/>
                </mxCell>
                <mxCell id="Xt5joB0sehqUxy9cHoEi-28" style="edgeStyle=orthogonalEdgeStyle;rounded=0;orthogonalLoop=1;jettySize=auto;html=1;fontSize=14;" edge="1" parent="1" source="Xt5joB0sehqUxy9cHoEi-29" target="Xt5joB0sehqUxy9cHoEi-18">
                    <mxGeometry relative="1" as="geometry">
                        <Array as="points">
                            <mxPoint x="640" y="770"/>
                        </Array>
                    </mxGeometry>
                </mxCell>
                <mxCell id="Xt5joB0sehqUxy9cHoEi-29" value="i = i+1" style="rounded=0;whiteSpace=wrap;html=1;fontSize=14;" vertex="1" parent="1">
                    <mxGeometry x="580" y="870" width="120" height="60" as="geometry"/>
                </mxCell>
                <mxCell id="Xt5joB0sehqUxy9cHoEi-30" style="edgeStyle=orthogonalEdgeStyle;rounded=0;orthogonalLoop=1;jettySize=auto;html=1;entryX=0;entryY=0.5;entryDx=0;entryDy=0;fontSize=14;" edge="1" parent="1" source="Xt5joB0sehqUxy9cHoEi-31" target="Xt5joB0sehqUxy9cHoEi-29">
                    <mxGeometry relative="1" as="geometry"/>
                </mxCell>
                <mxCell id="Xt5joB0sehqUxy9cHoEi-31" value="increment hasil with kata[i]" style="whiteSpace=wrap;html=1;fontSize=14;" vertex="1" parent="1">
                    <mxGeometry x="410" y="870" width="130" height="60" as="geometry"/>
                </mxCell>
                <mxCell id="Xt5joB0sehqUxy9cHoEi-32" value="Selesai" style="ellipse;whiteSpace=wrap;html=1;fontSize=14;" vertex="1" parent="1">
                    <mxGeometry x="200" y="1100" width="120" height="80" as="geometry"/>
                </mxCell>
                <mxCell id="Xt5joB0sehqUxy9cHoEi-33" value="&lt;b&gt;CHANGE VOWEL TO O&lt;/b&gt;" style="text;html=1;align=center;verticalAlign=middle;resizable=0;points=[];autosize=1;strokeColor=none;fillColor=none;fontSize=14;" vertex="1" parent="1">
                    <mxGeometry x="15" y="20" width="180" height="30" as="geometry"/>
                </mxCell>
                <mxCell id="Xt5joB0sehqUxy9cHoEi-34" value="1. FLOWCHART" style="text;html=1;align=center;verticalAlign=middle;resizable=0;points=[];autosize=1;strokeColor=none;fillColor=none;fontSize=14;" vertex="1" parent="1">
                    <mxGeometry x="85" y="75" width="130" height="30" as="geometry"/>
                </mxCell>
                <mxCell id="Xt5joB0sehqUxy9cHoEi-35" value="2. DESKRIPTIF" style="text;html=1;align=center;verticalAlign=middle;resizable=0;points=[];autosize=1;strokeColor=none;fillColor=none;fontSize=14;" vertex="1" parent="1">
                    <mxGeometry x="620" y="80" width="120" height="30" as="geometry"/>
                </mxCell>
                <mxCell id="Xt5joB0sehqUxy9cHoEi-36" value="1. mulai&lt;br&gt;2. input string &quot;jakarta&quot;&lt;br&gt;3. assign string &quot;jakarta&quot; ke variable kata&lt;br&gt;4. cek apakah kata benar benar string, jika tidak input kembali string&lt;br&gt;5. asign karakter a dan A kedalam variable vokal dengan type data array&lt;br&gt;6. assign string kosong (temporary) kedalam variable hasil&lt;br&gt;7. buat variable i = 0 dan bandingkan apakah i lebih kecil dari panjang kata,&lt;br&gt;8. jika ya maka cek apakah index kata[i] mengandung vokal ?&lt;br&gt;9.jika ya tambahkan huruf&amp;nbsp; o pada variable hasil&lt;br&gt;10. namun jika tidak tambahkan kata[i] pada variable hasil&lt;br&gt;11. increment variable i (i=i+1)&lt;br&gt;12. ulangi pengecekan apakah i lebih kecil dari panjang kata&lt;br&gt;13. jika tidak maka tampilkan output variable hasil&lt;br&gt;14. selesai" style="text;html=1;align=center;verticalAlign=middle;resizable=0;points=[];autosize=1;strokeColor=none;fillColor=none;fontSize=14;" vertex="1" parent="1">
                    <mxGeometry x="590" y="130" width="490" height="250" as="geometry"/>
                </mxCell>
                <mxCell id="Xt5joB0sehqUxy9cHoEi-37" style="edgeStyle=orthogonalEdgeStyle;rounded=0;orthogonalLoop=1;jettySize=auto;html=1;entryX=1;entryY=0.5;entryDx=0;entryDy=0;" edge="1" parent="1" source="Xt5joB0sehqUxy9cHoEi-38" target="Xt5joB0sehqUxy9cHoEi-4">
                    <mxGeometry relative="1" as="geometry">
                        <Array as="points">
                            <mxPoint x="403" y="270"/>
                        </Array>
                    </mxGeometry>
                </mxCell>
                <mxCell id="Xt5joB0sehqUxy9cHoEi-38" value="Input Harus &lt;br&gt;berupa string" style="shape=parallelogram;perimeter=parallelogramPerimeter;whiteSpace=wrap;html=1;fixedSize=1;" vertex="1" parent="1">
                    <mxGeometry x="342.5" y="360" width="117.5" height="60" as="geometry"/>
                </mxCell>
            </root>
        </mxGraphModel>
    </diagram>
</mxfile>